<svg width="40" height="40" viewBox="0 0 40 40" fill="none" xmlns="http://www.w3.org/2000/svg">
<path d="M11.6667 30.0002C13.5898 28.7656 16.1539 28.1483 17.436 26.9137C18.718 25.6792 14.8719 25.6792 14.8719 19.5063C14.8719 13.3335 20.0001 13.3335 20.0001 13.3335C20.0001 13.3335 25.1283 13.3335 25.1283 19.5063C25.1283 25.6792 21.2821 25.6792 22.5642 26.9137C23.8462 28.1483 26.4103 28.7656 28.3334 30.0002" stroke="#1B1D1F" stroke-width="2" stroke-linecap="round"/>
<path fill-rule="evenodd" clip-rule="evenodd" d="M20 35C28.2843 35 35 28.2843 35 20C35 11.7157 28.2843 5 20 5C11.7157 5 5 11.7157 5 20C5 28.2843 11.7157 35 20 35Z" stroke="#1B1D1F" stroke-width="2"/>
</svg>
