<svg width="30" height="34" viewBox="0 0 30 34" fill="none" xmlns="http://www.w3.org/2000/svg">
<path fill-rule="evenodd" clip-rule="evenodd" d="M15 2.76758C20.799 2.76758 25.5 7.46848 25.5 13.2675C25.5 16.6842 25.5 20.1296 25.5 22.212C25.5 27.5151 29 29.2827 29 29.2827L1 29.2827C1 29.2827 4.5 27.5151 4.5 22.212C4.5 20.1296 4.5 16.6842 4.5 13.2675C4.5 7.46848 9.20101 2.76758 15 2.76758V2.76758Z" stroke="#1B1D1F" stroke-width="2" stroke-linejoin="round"/>
<path d="M15 2.76768L15 1" stroke="#1B1D1F" stroke-width="2" stroke-linecap="round"/>
<path d="M11.5 29.2827C11.5 31.2352 13.067 32.8181 15 32.8181C16.933 32.8181 18.5 31.2352 18.5 29.2827" stroke="#1B1D1F" stroke-width="2"/>
</svg>
